<svg width="97" height="96" viewBox="0 0 97 96" fill="none" xmlns="http://www.w3.org/2000/svg">
<rect x="0.5" width="96" height="96" rx="24" fill="#252525"/>
<g clip-path="url(#clip0_1035_2442)">
<path d="M29.2115 45.6734L29.1964 45.7489V46.6395C25.5587 45.0093 18.8115 40.5715 18.8115 38.4734C18.8115 36.2395 25.5436 25.9451 27.0682 24.7376C29.7549 22.6243 34.087 20.2244 36.2304 19.0923C37.1964 22.6998 38.6002 25.4772 40.4719 27.4546C34.4492 30.7451 30.1021 37.447 29.2115 45.6734ZM49.0002 26.0206C52.6229 26.0206 55.0531 23.8169 56.2757 19.4847C56.2757 19.4697 56.2757 19.4697 56.2908 19.4546C53.9964 20.481 51.8228 21.1753 49.0002 21.1753C46.1927 21.1753 44.0191 20.481 41.7247 19.4546C41.7398 19.4697 41.7398 19.4697 41.7398 19.4847C42.9625 23.8169 45.3926 26.0206 49.0002 26.0206ZM58.1927 18.3979L57.7248 19.9225C57.7097 19.9376 57.7097 19.9677 57.6946 19.9828C56.2908 24.9187 53.287 27.53 49.0002 27.53C44.7285 27.53 41.7096 24.9187 40.3059 19.9677C40.3059 19.9527 40.3059 19.9376 40.2908 19.9225L39.8228 18.3979C39.1437 18.1111 38.2983 18.1263 37.5889 18.4131L37.6342 18.5489C39.536 25.7942 43.3549 29.4621 49.0002 29.4621C54.6606 29.4621 58.4795 25.7942 60.3663 18.5488L60.4115 18.3979C59.7021 18.1263 58.8719 18.1111 58.1927 18.3979ZM67.3096 45.8243V47.1829C67.2945 51.3187 67.2794 63.998 67.2794 70.0357C67.2794 73.4017 61.0757 75.8772 49.0002 75.8772C36.9247 75.8772 30.721 73.4017 30.721 70.0357C30.721 63.998 30.7059 51.3187 30.7059 47.1829C30.7059 46.3376 30.7059 45.8243 30.7059 45.8243C31.5663 37.6583 35.9436 31.4093 41.6644 28.5413C43.687 30.1564 46.1322 30.9716 49.0002 30.9716C51.8832 30.9716 54.3286 30.1564 56.3511 28.5413C62.0719 31.4093 66.4492 37.6583 67.3096 45.8243ZM70.9473 24.7376C68.2606 22.6243 63.9436 20.2394 61.7852 19.1073C60.8342 22.7149 59.4153 25.4923 57.5286 27.4545C63.5813 30.7149 67.9285 37.4319 68.8191 45.6734V46.6395C72.4568 45.0093 79.1889 40.5715 79.1889 38.4734C79.1889 36.2395 72.4719 25.9451 70.9473 24.7376Z" fill="#F8F7F7"/>
</g>
<defs>
<clipPath id="clip0_1035_2442">
<rect width="60.3774" height="60.3774" fill="white" transform="translate(18.8115 18.1885)"/>
</clipPath>
</defs>
</svg>
